<?xml version="1.0" standalone="no"?>
<!DOCTYPE svg PUBLIC "-//W3C//DTD SVG 20010904//EN"
 "http://www.w3.org/TR/2001/REC-SVG-20010904/DTD/svg10.dtd">
<svg version="1.0" xmlns="http://www.w3.org/2000/svg"
 width="738.000000pt" height="738.000000pt" viewBox="0 0 738.000000 738.000000"
 preserveAspectRatio="xMidYMid meet">
<metadata>
Created by potrace 1.14, written by Peter Selinger 2001-2017
</metadata>
<g transform="translate(0.000000,738.000000) scale(0.100000,-0.100000)"
fill="#000000" stroke="none">
<path d="M2548 6376 c-1 -2 -43 -6 -93 -10 -49 -3 -101 -8 -115 -10 -14 -3
-47 -7 -75 -11 -27 -3 -66 -10 -85 -15 -19 -5 -51 -12 -70 -15 -54 -9 -147
-34 -235 -63 -44 -14 -85 -27 -90 -28 -6 -1 -46 -16 -90 -34 -358 -146 -638
-332 -911 -604 -111 -111 -267 -295 -295 -349 -7 -12 -15 -24 -20 -27 -26 -17
-203 -340 -260 -475 -59 -139 -138 -396 -155 -504 -3 -20 -7 -38 -9 -41 -2 -3
-7 -33 -10 -65 -4 -33 -9 -62 -10 -65 -18 -30 -27 -472 -13 -625 21 -225 92
-533 163 -700 57 -136 85 -196 139 -300 35 -66 80 -146 102 -179 21 -32 44
-66 49 -75 63 -100 212 -277 345 -408 382 -379 897 -642 1425 -728 22 -4 47
-8 55 -10 8 -1 49 -6 90 -10 41 -4 86 -9 100 -11 31 -4 383 -4 430 0 19 2 51
6 70 9 19 3 62 9 95 12 33 4 63 9 66 11 3 1 27 6 53 9 38 6 174 40 316 80 19
5 128 46 197 74 133 53 302 141 438 229 76 49 214 149 230 166 6 6 30 27 55
48 92 74 263 249 335 342 17 21 35 44 40 50 6 6 26 34 45 61 19 28 37 52 40
55 9 8 74 109 110 170 85 143 229 463 230 509 1 34 17 -14 24 -69 12 -100 18
-134 48 -280 16 -80 31 -153 33 -163 16 -73 93 -329 130 -434 61 -169 189
-426 269 -537 352 -489 777 -477 1116 31 160 239 298 589 385 981 37 164 42
188 51 242 3 19 7 46 10 60 2 14 7 41 9 60 3 19 8 51 11 70 4 19 8 53 10 75 2
22 6 54 8 70 3 17 8 64 12 105 3 41 8 91 10 110 27 266 22 869 -10 1151 -3 30
-8 81 -12 113 -3 33 -7 67 -9 75 -3 17 -11 72 -20 136 -13 89 -45 258 -74 380
-168 724 -473 1226 -804 1327 -195 59 -376 4 -554 -171 -264 -258 -488 -795
-599 -1436 -7 -42 -8 -50 -19 -130 -8 -61 -20 -76 -30 -38 -3 15 -12 42 -19
58 -8 17 -26 62 -41 100 -57 143 -174 357 -273 500 -127 182 -331 404 -491
533 -53 42 -98 80 -101 83 -18 22 -286 188 -390 241 -272 140 -589 240 -865
272 -27 4 -68 9 -90 12 -45 6 -401 14 -407 10z"/>
</g>
</svg>
